# Blender v2.83.3 OBJ File: ''
# www.blender.org
mtllib untitled.mtl
o Cube
v 1.158240 0.052130 -1.218958
v 1.004654 -1.376021 0.172730
v 0.966429 1.452048 0.196470
v 0.812843 0.023897 1.588158
v -0.826608 0.027354 -1.463430
v -0.980194 -1.400797 -0.071741
v -1.018419 1.427273 -0.048001
v -1.172005 -0.000878 1.343687
v -1.076100 -0.700837 0.635973
v 1.103629 1.136079 -0.885430
v -0.881218 1.111304 -1.129902
v 0.908748 -0.676062 0.880444
vt 0.625000 0.625000
vt 0.875000 0.625000
vt 0.875000 0.750000
vt 0.625000 0.750000
vt 0.375000 0.750000
vt 0.625000 1.000000
vt 0.375000 1.000000
vt 0.375000 0.125000
vt 0.625000 0.125000
vt 0.625000 0.250000
vt 0.375000 0.250000
vt 0.125000 0.625000
vt 0.375000 0.625000
vt 0.125000 0.750000
vt 0.625000 0.500000
vt 0.375000 0.500000
vt 0.125000 0.500000
vt 0.375000 0.000000
vt 0.625000 0.000000
vt 0.875000 0.500000
vn 0.0222 0.9604 -0.2777
vn -0.0959 0.7000 0.7077
vn -0.9924 -0.0124 -0.1222
vn -0.0768 -0.7141 0.6958
vn 0.9924 0.0124 0.1222
vn 0.0959 -0.7000 -0.7077
vn 0.1131 0.2974 -0.9480
usemtl Material
s off
f 10/1/1 11/2/1 7/3/1 3/4/1
f 4/5/2 3/4/2 7/6/2 8/7/2
f 9/8/3 11/9/3 5/10/3 6/11/3
f 9/12/4 12/13/4 4/5/4 8/14/4
f 12/13/5 10/1/5 3/4/5 4/5/5
f 6/11/6 5/10/6 1/15/6 2/16/6
f 2/16/5 1/15/5 10/1/5 12/13/5
f 6/17/4 2/16/4 12/13/4 9/12/4
f 8/18/3 7/19/3 11/9/3 9/8/3
f 1/15/7 5/20/7 11/2/7 10/1/7
