# Blender v2.83.3 OBJ File: ''
# www.blender.org
mtllib shape_5.mtl
o Cube_Cube.001
v -0.551491 -1.408079 0.844495
v -1.583837 0.292300 0.637197
v -0.055862 -1.343257 -1.092035
v -1.088208 0.357122 -1.299333
v 1.088208 -0.357122 1.299333
v 0.055862 1.343257 1.092035
v 1.583837 -0.292300 -0.637197
v 0.551491 1.408079 -0.844495
vt 0.375000 0.000000
vt 0.625000 0.000000
vt 0.625000 0.250000
vt 0.375000 0.250000
vt 0.625000 0.500000
vt 0.375000 0.500000
vt 0.625000 0.750000
vt 0.375000 0.750000
vt 0.625000 1.000000
vt 0.375000 1.000000
vt 0.125000 0.500000
vt 0.125000 0.750000
vt 0.875000 0.500000
vt 0.875000 0.750000
vn -0.8198 -0.5255 -0.2274
vn 0.2478 0.0324 -0.9683
vn 0.8198 0.5255 0.2274
vn -0.2478 -0.0324 0.9683
vn 0.5162 -0.8502 0.1036
vn -0.5162 0.8502 -0.1036
usemtl None
s off
f 1/1/1 2/2/1 4/3/1 3/4/1
f 3/4/2 4/3/2 8/5/2 7/6/2
f 7/6/3 8/5/3 6/7/3 5/8/3
f 5/8/4 6/7/4 2/9/4 1/10/4
f 3/11/5 7/6/5 5/8/5 1/12/5
f 8/5/6 4/13/6 2/14/6 6/7/6
