# Blender v2.83.3 OBJ File: ''
# www.blender.org
mtllib shape.mtl
o Cube
v 0.682784 1.000000 -0.682784
v 0.682784 -1.000000 -0.682784
v 0.682784 1.000000 0.682784
v 0.682784 -1.000000 0.682784
v -0.682784 1.000000 -0.682784
v -0.682784 -1.000000 -0.682784
v -0.682784 1.000000 0.682784
v -0.682784 -1.000000 0.682784
v -1.000000 -1.000000 0.000000
v 1.000000 1.537744 0.000000
v -1.000000 1.537744 0.000000
v 1.000000 -1.000000 0.000000
v 0.000000 -1.000000 -1.000000
v 0.000000 1.000000 1.000000
v 0.000000 -1.000000 1.000000
v 0.000000 1.000000 -1.000000
v 0.000000 -1.000000 0.000000
v 0.000000 1.888093 0.000000
vt 0.750000 0.625000
vt 0.875000 0.625000
vt 0.875000 0.750000
vt 0.750000 0.750000
vt 0.375000 0.875000
vt 0.625000 0.875000
vt 0.625000 1.000000
vt 0.375000 1.000000
vt 0.375000 0.125000
vt 0.625000 0.125000
vt 0.625000 0.250000
vt 0.375000 0.250000
vt 0.250000 0.625000
vt 0.375000 0.625000
vt 0.375000 0.750000
vt 0.250000 0.750000
vt 0.625000 0.625000
vt 0.625000 0.750000
vt 0.375000 0.375000
vt 0.625000 0.375000
vt 0.625000 0.500000
vt 0.375000 0.500000
vt 0.250000 0.500000
vt 0.375000 0.000000
vt 0.625000 0.000000
vt 0.750000 0.500000
vt 0.875000 0.500000
vt 0.125000 0.500000
vt 0.125000 0.625000
vt 0.125000 0.750000
vn -0.2704 0.7088 0.6515
vn -0.4213 0.0000 0.9069
vn -0.9069 0.0000 -0.4213
vn 0.0000 -1.0000 0.0000
vn 0.9069 0.0000 0.4213
vn 0.4213 0.0000 -0.9069
vn 0.9069 0.0000 -0.4213
vn -0.9069 0.0000 0.4213
vn -0.2704 0.7088 -0.6515
vn 0.2704 0.7088 -0.6515
vn -0.4213 0.0000 -0.9069
vn 0.4213 0.0000 0.9069
vn 0.2704 0.7088 0.6515
usemtl Material
s off
f 18/1/1 11/2/1 7/3/1 14/4/1
f 15/5/2 14/6/2 7/7/2 8/8/2
f 9/9/3 11/10/3 5/11/3 6/12/3
f 17/13/4 12/14/4 4/15/4 15/16/4
f 12/14/5 10/17/5 3/18/5 4/15/5
f 13/19/6 16/20/6 1/21/6 2/22/6
f 2/22/7 1/21/7 10/17/7 12/14/7
f 13/23/4 2/22/4 12/14/4 17/13/4
f 8/24/8 7/25/8 11/10/8 9/9/8
f 16/26/9 5/27/9 11/2/9 18/1/9
f 1/21/10 16/26/10 18/1/10 10/17/10
f 6/28/4 13/23/4 17/13/4 9/29/4
f 6/12/11 5/11/11 16/20/11 13/19/11
f 9/29/4 17/13/4 15/16/4 8/30/4
f 4/15/12 3/18/12 14/6/12 15/5/12
f 10/17/13 18/1/13 14/4/13 3/18/13
